<svg width="230" height="230" viewBox="0 0 229 208" fill="none" xmlns="http://www.w3.org/2000/svg">	<g filter="url(#filter0_d)">		<path fill-rule="evenodd" clip-rule="evenodd" d="M104 0C159.228 0 204 44.7715 204 100H179C179 58.5786 145.421 25 104 25C62.5786 25 29 58.5786 29 100C29 141.421 62.5786 175 104 175C113.141 175 121.9 173.365 130 170.371V196.587C121.709 198.813 112.993 200 104 200C48.7715 200 4 155.228 4 100C4 44.7715 48.7715 0 104 0Z" fill="#9B51E0"/>	</g>	<g filter="url(#filter1_d)">		<path fill-rule="evenodd" clip-rule="evenodd" d="M144.019 105H224.518V124.653L225 125.117L224.518 125.58V126.305H223.765L172.447 175.695H221.5V197H141V175.695H142.364L141.752 175.106L192.458 126.305H144.019V105Z" fill="#9B51E0"/>	</g>	<g filter="url(#filter2_d)">		<path d="M133.571 95.8561C136.938 97.7741 136.938 102.627 133.571 104.545L92.4228 127.986C89.0896 129.884 84.948 127.477 84.948 123.641V76.7603C84.948 72.9242 89.0896 70.517 92.4228 72.4158L133.571 95.8561Z" fill="#C4C4C4"/>	</g>	<defs>		<filter id="filter0_d" x="0" y="0" width="208" height="208" filterUnits="userSpaceOnUse" color-interpolation-filters="sRGB">			<feFlood flood-opacity="0" result="BackgroundImageFix"/>			<feColorMatrix in="SourceAlpha" type="matrix" values="0 0 0 0 0 0 0 0 0 0 0 0 0 0 0 0 0 0 127 0" result="hardAlpha"/>			<feOffset dy="4"/>			<feGaussianBlur stdDeviation="2"/>			<feComposite in2="hardAlpha" operator="out"/>			<feColorMatrix type="matrix" values="0 0 0 0 0 0 0 0 0 0 0 0 0 0 0 0 0 0 0.25 0"/>			<feBlend mode="normal" in2="BackgroundImageFix" result="effect1_dropShadow"/>			<feBlend mode="normal" in="SourceGraphic" in2="effect1_dropShadow" result="shape"/>		</filter>		<filter id="filter1_d" x="137" y="105" width="92" height="100" filterUnits="userSpaceOnUse" color-interpolation-filters="sRGB">			<feFlood flood-opacity="0" result="BackgroundImageFix"/>			<feColorMatrix in="SourceAlpha" type="matrix" values="0 0 0 0 0 0 0 0 0 0 0 0 0 0 0 0 0 0 127 0" result="hardAlpha"/>			<feOffset dy="4"/>			<feGaussianBlur stdDeviation="2"/>			<feComposite in2="hardAlpha" operator="out"/>			<feColorMatrix type="matrix" values="0 0 0 0 0 0 0 0 0 0 0 0 0 0 0 0 0 0 0.25 0"/>			<feBlend mode="normal" in2="BackgroundImageFix" result="effect1_dropShadow"/>			<feBlend mode="normal" in="SourceGraphic" in2="effect1_dropShadow" result="shape"/>		</filter>		<filter id="filter2_d" x="80.948" y="71.753" width="59.1485" height="64.8954" filterUnits="userSpaceOnUse" color-interpolation-filters="sRGB">			<feFlood flood-opacity="0" result="BackgroundImageFix"/>			<feColorMatrix in="SourceAlpha" type="matrix" values="0 0 0 0 0 0 0 0 0 0 0 0 0 0 0 0 0 0 127 0" result="hardAlpha"/>			<feOffset dy="4"/>			<feGaussianBlur stdDeviation="2"/>			<feComposite in2="hardAlpha" operator="out"/>			<feColorMatrix type="matrix" values="0 0 0 0 0 0 0 0 0 0 0 0 0 0 0 0 0 0 0.25 0"/>			<feBlend mode="normal" in2="BackgroundImageFix" result="effect1_dropShadow"/>			<feBlend mode="normal" in="SourceGraphic" in2="effect1_dropShadow" result="shape"/>		</filter>	</defs></svg>